<svg width="41" height="29" viewBox="0 0 41 29" fill="none" xmlns="http://www.w3.org/2000/svg">
<path d="M19.608 29H29.552C35.888 29 40.596 26.316 40.596 20.552C40.596 16.68 38.264 14.436 34.128 13.732V13.556C37.516 12.676 39.056 10.036 39.056 7.308C39.056 2.028 34.7 0.223998 28.804 0.223998H19.608V29ZM24.712 12.148V4.184H28.452C32.192 4.184 34.04 5.284 34.04 7.924C34.04 10.608 32.368 12.148 28.32 12.148H24.712ZM24.712 25.04V15.8H29.024C33.292 15.8 35.58 17.208 35.58 20.2C35.58 23.456 33.248 25.04 29.024 25.04H24.712Z" fill="white"/>
<path d="M9.448 17.208L10.46 13.688C11.384 10.652 12.22 7.396 13.012 4.184H13.188C14.024 7.352 14.904 10.652 15.784 13.688L16.796 17.208H9.448ZM20.184 29H25.596L16.224 0.223998H10.24L0.824 29H6.06L8.304 21.212H17.94L20.184 29Z" fill="#FBA820"/>
</svg>
